<svg version="1.2" xmlns="http://www.w3.org/2000/svg" viewBox="0 0 186 309" width="186" height="309"><defs><clipPath clipPathUnits="userSpaceOnUse" id="cp1"><path d="m0 0h658v309h-658z"/></clipPath></defs><style>.a{fill:#3489c9}.b{fill:#bc164a}</style><g clip-path="url(#cp1)"><path class="a" d="m279.4 232.9q-1.3 1.4-3 4.1-1.7 2.7-3.3 5.5c-1 1.9-2 3.7-3 5.5q-1.4 2.6-2.1 4.3-1.5 3.3-2.9 6.6c-0.9 2.1-1.7 4.3-2.4 6.6q-0.8 3.2-0.8 5.2c0 1.4 0.5 2.3 1.2 2.7q1.2 0.6 3.4-0.4 2.2-1 5.7-4 3.4-3.1 6.4-6.8 2.9-3.7 5-7.7 2.9-1.4 3.4 1.7-2.4 4.4-5.5 8.8c-2 2.9-4.3 5.6-6.8 8.1-3.8 4-7.2 6.7-10.2 8-3.1 1.2-5.8 1.4-8 0.4-2.4-0.9-4-2.5-4.8-4.8q-1.2-3.3-1.1-6.8c0.1-4.3 0.9-8.7 2.3-12.9 1.4-4.3 3.2-8.2 5.3-12 1.3-2.3 2.6-4.5 4.1-6.9 1.6-2.3 3.3-4.3 5.3-5.9q1-0.8 2.6-1.3 1.6-0.5 3.3-0.4c1.2 0 2.3 0.2 3.4 0.6q1.5 0.5 2.5 1.7zm-0.1-9.9q-2.3-0.8-4-2.8c-1.1-1.4-1.5-3.1-1.2-5q0.4-2.6 1.5-4.9 1-2.3 3.6-2.9 1.5-0.2 2.9 0c1 0.2 1.9 0.4 2.8 0.8q3.2 1.1 4.1 2.8 0.9 1.8 1 2.7c0.2 1.4 0 2.8-0.4 4.1q-0.5 2-2 3.5-1.7 1.6-3.9 2c-1.5 0.2-2.9 0.1-4.4-0.3z"/><path class="a" d="m305.4 253.3q1.6-1.7 3.1-4.1 1.4-2.4 2.5-4.8 1-2.4 1.4-4.4c0.3-1.4 0.4-2.4 0.1-3.1l-0.3-0.4q-1.4 0.9-2.8 1.9c-0.9 0.7-1.8 1.4-2.5 2.2q-3.8 3.5-6.6 7.7-2.1 3-3.8 6.5c-1.2 2.4-2.1 4.9-2.6 7.3q-1.2 4.7-0.2 7.4c0.7 1.8 1.8 3 3.5 3.6q2.4 1 5.8 0.3 3.4-0.7 6.9-2.8c3.1-1.8 5.9-4 8.4-6.7q3.9-4 6.7-9.4 1.3-0.5 2.2-0.3c0.6 0.2 1 0.8 1.2 2q-3.2 6-7.4 10.8-4.1 4.7-9.5 8.6c-4.2 3-8.3 4.8-12.3 5.5q-6.1 1.1-10.6-1.1c-2.9-1.4-5.1-3.9-6.3-7.6q-2-5.4 0-14c0.9-3.7 2.3-7.3 4.3-10.7 2-3.4 4.4-6.5 7.1-9.2q2.3-2.2 5.1-3.8c1.8-1.1 3.8-1.9 5.8-2.4 0.9-0.2 1.8-0.3 2.7-0.4 0.9-0.1 1.8 0 2.8 0.1q0.5-0.3 1.1-0.5 0.6-0.1 1.2-0.4 3-0.5 5.5 0.6c1.6 0.8 2.8 1.9 3.6 3.3 0.6 1.3 0.9 2.8 0.8 4.5q-0.1 2.6-1 5.2c-0.6 1.8-1.5 3.4-2.5 4.9q-1.6 2.2-3.6 3.3c-1.3 0.8-2.9 1.2-4.8 1.2-1.8 0-3.5-0.3-5.2-0.9z"/><path class="a" d="m389.2 230.8c-1.3-1-2.3-2.1-3.1-3.4-0.8-1.3-1.4-2.6-1.7-4q-0.5-2-0.3-4.1c0.2-1.4 0.6-2.8 1.2-4q2.4-4.3 6.4-6.5c2.7-1.5 5.7-2.4 9-2.8 3.4-0.4 6.9-0.2 10.7 0.3 3.8 0.6 7.5 1.6 11.3 2.9q3.6 1.3 7.4 2.4c2.4 0.8 5 1.2 7.6 1.3q2.7 0.1 5.3-0.6 2.6-0.7 5-2 1.5-0.7 1.8-0.8c0.2 0 0.1 0.6-0.4 1.8-1.2 3-3.1 5.4-5.7 7.1q-2.6 1.7-5.4 2.4-2.8 0.7-5.9 1c-2.5 2.9-4.6 6.1-6.3 9.4q-2.6 5-5 10.3c-2.3 5.2-4.6 10.4-7 15.6-2.3 5.2-5.1 10.1-8.5 14.7-1.9 2.6-4.1 4.9-6.6 6.9q-3.7 3.2-8.1 5-4.3 1.9-9 2-4.7 0.3-9.5-1.8c-3.3-1.3-6-3.3-7.7-5.9q-2.7-4-3.4-8.8-0.7-4.7 0.4-9.7c0.8-3.3 2.1-6.2 3.9-8.9q2.7-4.1 6.5-6.7 3.8-2.6 8.8-3.2c1.6-0.2 3.2-0.1 4.7 0.2q2.4 0.4 4.3 1.5c1.3 0.8 2.5 1.7 3.5 2.9q1.4 1.7 2.2 4.1 0.7 2.4 0.7 4.8 0 2.4-0.8 4.8-0.7 2.4-2 4.5-1.4 2.1-3.2 3.7-1.8 1.5-3.9 2.5-2.1 1-4.4 1c-1.8 0-3-0.2-3.8-0.5-0.8-0.3-1.2-0.6-1.2-0.8 1.8-0.7 3.3-1.7 4.8-3.2q2-2.2 3.4-5c0.9-1.8 1.5-3.7 1.7-5.7 0.3-1.9 0.2-3.8-0.3-5.3-0.4-1.4-1.1-2.6-2.1-3.5q-1.6-1.3-3.5-1.8-2-0.5-4 0c-1.4 0.3-2.6 0.9-3.8 1.9-1.2 1-2.2 2.3-3 3.7q-1.1 2.2-1.6 4.5-0.5 2.4-0.6 5c0 1.7 0.1 3.2 0.3 4.7 0.2 1.7 0.6 3.3 1.1 4.8q0.8 2.3 2.2 4c1 1.2 2.1 2.1 3.6 2.8q2.1 1.1 4.9 1.1 3.6 0 6.6-1.4 2.9-1.3 5.3-3.6 2.3-2.3 4.2-5.2c1.2-2 2.3-4 3.4-6.1q1.5-3.1 2.8-6.4c0.8-2.1 1.6-4.1 2.4-5.9 1-2.4 2.1-5 3.2-7.6q1.7-4.1 3.9-7.9 2.1-3.8 4.9-7c1.7-2.2 3.8-4.1 6.1-5.5-0.7-0.2-1.5-0.3-2.1-0.5q-1-0.3-2-0.6c-3.4-0.9-6.8-1.6-10.2-2q-5.2-0.7-10.6 0c-1.4 0.2-2.7 0.7-3.9 1.4-1.2 0.8-2.2 1.7-3 2.9-0.8 1.2-1.4 2.5-1.8 4q-0.5 2.2 0 4.7z"/><path class="a" d="m414.7 272.4c4.3-4.9 8.2-10.3 11.6-15.9 3.5-5.7 6.4-11.8 8.8-18.3-0.8-1.6-1.2-3.2-1.1-4.8 0.2-1.7 0.6-3.1 1.2-4.3 0.7-1.2 1.6-2 2.6-2.5q1.6-0.7 3.2 0.3c1.2 0.8 1.7 1.9 1.5 3.3q-0.4 2.2-1.2 4.3 0.7 0.4 1.7 0.4h1.8q2.7-0.2 5-0.9 1.5-2.1 2.8-2.9 1.2-0.8 3.1 0.6 4.2 3.3 4.8 6.2 0.5 2.9-1.9 5.5-4 5.1-7.8 11-3.8 5.9-5.7 11-1.4 3.7-1.2 6 0.2 2.3 1.6 3 1.3 0.7 3.6-0.2 2.3-0.8 5-3.3c2.1-1.8 4.2-4.2 6.5-7.2q3.4-4.4 5.9-9.3 1.4-0.8 2.3-0.1 1 0.7 1.1 1.8-2.9 5.4-5.9 10-3 4.5-7.1 8.6c-2.3 2.3-4.6 4-6.9 5.1-2.4 1.1-4.6 1.7-6.7 1.8-2.1 0.2-4-0.2-5.7-1q-2.5-1.3-4-3.8-1.5-2.5-1.6-6.1-0.1-3.6 1.7-8.3 2.1-5.6 5.3-11.1 3.2-5.5 6.1-9.3c-0.5 0-0.9 0-1.1-0.1q-1-0.1-2.4-0.5c-1-0.2-2-0.5-3-1q-1.2 3.1-2.9 7.2-1.8 4.2-4.3 8.6-2 3.8-4.1 7c-1.3 2.1-2.7 3.9-4.1 5.3q-2.1 2.1-4.3 3.2c-1.4 0.7-2.9 0.9-4.3 0.6z"/><path fill-rule="evenodd" class="a" d="m518.7 235.1c-0.8 1-1.7 2.4-2.8 4.1q-1.6 2.5-3.4 5.5-1.8 2.9-3.5 6.1-1.8 3.2-3.1 6-2.9 5.9-4.5 10c-1 2.6-1.3 4.3-0.8 5.1 0.2 0.4 0.6 0.6 1.1 0.5 0.5 0 1.1-0.1 1.7-0.3q1-0.4 1.8-0.8 0.8-0.5 1.1-0.7 2.3-1.5 4.1-3.5c1.2-1.2 2.3-2.6 3.4-4 0.9-1.4 1.9-2.8 2.8-4.3 0.9-1.5 1.8-2.9 2.5-4.3q1.3-0.4 2.2 0 0.9 0.3 1.2 1.7-1.5 2.7-2.9 5.4c-0.9 1.8-1.9 3.5-3.1 5.2q-1.7 2.5-3.6 4.8-1.9 2.4-3.9 4.5c-1.4 1.3-2.8 2.5-4.4 3.5q-2.4 1.6-5.4 1.5-2.9 0-5.3-1.7-2.3-1.8-3.3-4.5c-0.4-0.8-0.6-1.8-0.8-2.8-1.1 1.6-2.3 3.1-3.6 4.4q-1.9 2-4.3 3.4c-2.3 1.3-4.6 1.8-7.1 1.6q-3.7-0.4-6.4-2.9c-1.8-1.6-3-3.5-3.6-5.7q-1-3.4-0.9-6.7 0.1-4.2 1.3-8.4c0.8-2.7 2-5.3 3.3-7.9q2.1-3.8 4.8-7.2c1.8-2.2 3.7-4.2 5.8-6 1.9-1.9 4.1-3.4 6.6-4.5 2.5-1.1 5.1-1.6 7.8-1.4 2.6 0.1 4.9 0.9 6.9 2.3q2.9 2.2 4.3 5.8 1.3-1.5 2.9-2.7c1.1-0.8 2.3-1.4 3.5-1.8 1.3-0.5 2.6-0.8 4-0.7q2.2 0.1 3.6 1.4zm-33.4 28.9q4.8-3.4 8.6-8.6 3.8-5.3 4.9-11.2 0.5-2.2-0.1-4.4-0.6-2.2-3.3-2.6c-1.4-0.2-2.7 0.1-3.9 0.9q-1.8 1.1-3.3 2.5c-3 2.9-5.4 6.3-7.3 10.1q-2.8 5.7-4.3 11.9-1.3 6.1 0.6 8.1c1.3 1.2 3.1 1.3 5.3 0.1 1.5-0.8 2.9-1.7 4.2-2.8 1.3-1.2 2.6-2.3 3.7-3.5q-1.5 0.3-3 0.4c-1 0-1.7-0.3-2.2-0.8z"/><path class="a" d="m563.1 227.7c0.7 1.8 0.9 3.6 0.4 5.4q-0.6 2.8-1.7 5.3c-0.7 2-1.6 3.9-2.5 5.6 0.9 0.7 2 1.1 3.3 1.3 1.3 0.2 2.7 0.1 4.2-0.3q2.9-0.6 6-2.3 3-1.6 5-3.6-0.5 3.4-3.4 6.4-2.8 3-6.6 4.2-3.2 1-6.2 0.9c-1.9-0.1-3.7-0.6-5.4-1.3l-2.5 3.8c-2.8 4.1-5.8 8.3-9 12.4q-4.8 6.3-9.3 12.4-0.3 0.4-0.9 1.2-0.5 0.8-1.3 1.7c-0.5 0.5-1 1-1.5 1.5q-0.7 0.7-1.4 0.9c-0.8 0.2-1.6 0-2.3-0.5-0.8-0.5-1.5-1.2-2.2-2q-0.9-1.2-1.6-2.6-0.7-1.3-1-2.2c-1.2-3.1-1.8-6.3-1.8-9.6q0-4.9 0.9-9.9c-1.7 0.6-2.8 0-3.1-1.9 1.4-2.5 2.8-5.1 4-7.8 1.3-2.7 2.4-5.3 3.5-7.8 0.3-1 0.7-2 1-3 0.4-1 0.8-2.1 1.1-3.1 0.2-0.6 0.5-1.1 0.9-1.7q0.6-1 1.4-1.1c0.8-0.3 2.1-0.1 4 0.3 1.9 0.5 3.6 1.5 5.1 3q1 0.9 1.3 1.7 0.4 0.8-0.3 2-1.9 4.3-3.6 8.7c-1.2 2.9-2.2 6-3 9-0.9 3.1-1.5 6.2-1.9 9.3-0.3 3.2-0.5 6.4-0.2 9.6 1.7-2.9 3.6-6.1 5.7-9.7q3.2-5.3 6.5-11l6-9.9c-0.1-0.4-0.2-0.7-0.2-0.9q-1-3.9 0.2-7.7 1.2-3.9 3.5-7c0.5-0.7 1-1.5 1.6-2.1q0.9-1 2.1-1.9 0.7-0.5 1.9 0.2c0.8 0.4 1.5 1.1 2.1 1.9 0.2 0.4 0.5 0.8 0.7 1.3 0.3 0.5 0.4 0.8 0.6 1z"/><path fill-rule="evenodd" class="a" d="m581.9 259.9c-0.8 0.1-1.5 0.1-2.4 0.1-0.8 0-1.6-0.2-2.4-0.3-1.2 3.9-1.6 7.2-1.1 9.7q0.9 3.8 3.6 5.3 2.8 1.5 7.3 0.5 4.4-0.9 9.9-4.4c2.9-2 5.6-4.5 8-7.4q3.5-4.4 5.9-8.9c0.8-0.2 1.6-0.4 2.2-0.3 0.7 0 1.1 0.7 1.2 2q-2.4 4.7-6.4 9.5-4 4.9-8.7 9c-5 4.2-10 7-15 8.5q-7.4 2.1-12.6-1.3-4.1-2.7-6.2-7.2-2.1-4.3-2-9.1 0.1-4.4 1.7-8.9 1.5-4.5 4-8.7c1.7-2.7 3.7-5.2 5.9-7.5 2.3-2.3 4.7-4.1 7.3-5.6q4-2.1 9.1-3.3c3.4-0.7 6.6-0.7 9.5 0 1.5 0.4 2.8 1 3.7 1.9q1.5 1.3 2.2 3 0.7 1.8 0.6 3.8c-0.1 1.3-0.4 2.7-0.9 4-1.2 3.2-3.1 5.9-5.7 8-2.7 2.2-5.5 3.9-8.5 5.1-3.4 1.4-6.8 2.2-10.2 2.4zm9.1-20.3q-3.9 3.4-7.1 7.7-3.3 4.4-5.5 9.1c1.1-0.2 2.3-0.7 3.6-1.2q3.2-1.1 6.1-2.7c2-1.1 3.8-2.5 5.4-4 1.4-1.3 2.7-2.8 3.9-4.4q1.8-2.6 1.6-5.6 0-1.8-1.1-1.9c-0.7-0.2-1.5 0-2.4 0.3q-1.3 0.5-2.6 1.3-1.3 0.9-1.9 1.4z"/><path fill-rule="evenodd" class="a" d="m651.5 206.7q0.9 0 1.8 0.3 0.8-0.8 2-0.4c0.7 0.3 1.3 0.6 1.7 1q0.7 0.9 0.9 2.1c0.1 0.9 0.1 1.7 0 2.3-0.1 2.5-0.8 5-1.9 7.3q-1.8 3.6-3.7 6.7c-1.4 2.5-3 4.8-4.7 7.1-1.7 2.2-3.5 4.4-5.4 6.6q-3.3 3.7-6.8 7.2c-2.3 2.4-4.8 4.7-7.3 6.7q-1.2 0.9-2.3 1.7c-0.7 0.6-1.4 1.2-2.1 1.7-0.2 0.2-0.4 0.4-0.6 0.6-0.3 0.3-0.5 0.5-0.8 0.6q-0.5 1.4-1 2.8-0.5 1.4-1 2.8-0.6 2.3-0.9 4.9c-0.2 1.8 0 3.3 0.5 4.5q0.7 1.9 2.8 2.4 2 0.6 5.8-1.5c1.4-0.8 3-1.9 4.6-3.3q2.5-2 5-4.6c1.6-1.7 3.2-3.6 4.7-5.6q2.3-3.1 3.9-6.2 1.4-0.5 2.2-0.2c0.6 0.2 1 0.8 1.2 1.9q-1.6 3.1-3.7 6.3c-1.4 2.2-3 4.4-4.7 6.5q-2.6 3.2-5.6 6-3 2.8-6.5 5.1-4 2.5-8 3-4 0.5-7.2-1-3.2-1.5-5.1-5.1c-1.3-2.3-1.9-5.4-1.7-9.1 0-2.3 0.4-4.7 0.9-7 0.6-2.3 1.3-4.6 2.2-6.8q1.3-3.3 3-6.5 1.7-3.2 3.4-6 3.8-6.5 7.9-12.9 4.2-6.4 9.4-11.8 2.1-2.2 4.4-4.1c1.5-1.3 3.1-2.5 4.9-3.5 1.2-0.7 2.4-1.4 3.7-1.9q1.9-0.8 4.1-0.8zm-24.6 42v-0.1q0 0 0 0zm4.8-4.7q2.3-2.4 4.5-4.9c1.9-2.3 3.7-4.6 5.5-7 1.7-2.4 3.4-4.8 5-7.3q1.8-2.6 3.2-5.3c1-1.8 1.8-3.7 2.4-5.8-1.3 1.2-2.5 2.4-3.8 3.6-1.3 1.2-2.6 2.5-3.8 3.8-2.7 3.4-5.1 6.9-7.5 10.4-2.4 3.6-4.6 7.3-6.8 11l-3.5 6.1q2.4-2.2 4.8-4.6z"/><path class="b" d="m155.6 151.2c-0.1 1.2 0.5 1.7 1.7 1.7 6 0 12 0 18.1 0 1.8 0 3.4-0.8 4.2-2.6 0.8-1.8 0.3-3.3-0.9-4.7q-6.9-8.5-13.8-17c-2.1-2.6-4.1-5.3-6.1-8-0.9-1.1-1.8-2.1-3-3.6"/><path class="b" d="m42.3 188.1c-0.1 0.9-0.2 1.3-0.2 1.8q0 57.3 0 114.7c0 2.1 1 3.6 2.8 4.2 1.7 0.5 3.5 0 4.8-1.5q3.5-4.2 7-8.5c9.2-11.1 18.4-22.1 27.6-33.2q7.8-9.3 15.6-18.6c1-1.1 1.2-1.8 0-3-4-3.7-7.7-7.5-11.6-11.3q-20.1-19.5-40.3-39.1c-1.8-1.8-3.6-3.5-5.7-5.5z"/><path class="b" d="m91.3 148c16.4 15.2 32.6 30.1 49.1 45.4 0.1-1.3 0.2-2 0.2-2.8 0-15.4 0-30.9 0-46.4q0-13.6 0-27.1c0-2-0.7-3.4-2.5-4.3-1.8-0.8-3.4-0.4-4.9 0.8-12 9.8-24 19.6-36 29.4-1.9 1.6-3.8 3.2-5.9 5z"/><path class="b" d="m93.7 201.4c12.6 8.5 23.8 15.2 25.8 16.2-0.2-0.7-0.7-1.5-1.1-2-21.8-23.1-29.5-52.3-31.7-63.7-6.1-30.8-6.9-62.2-7.5-106.6-0.5-37.6-1.6-40.6-1.7-40.7-1.7-4.2-5-12-42.2 12.2-11.6 7.9-21.3 15.4-33.3 26.2-3.9 4.3-7.8 89.2 46.2 127.7 15.2 10.3 30.3 20.5 45.5 30.7z"/></g></svg>