<svg width="658" height="309" viewBox="0 0 658 309" fill="none" xmlns="http://www.w3.org/2000/svg">
<g clip-path="url(#clip0_26_157)">
<path d="M172.523 196.08C173.922 198.689 175.547 201.071 177.324 203.265C179.101 205.458 181.142 207.425 183.41 209.164C185.678 207.538 188.135 206.252 190.819 205.307C193.503 204.361 196.187 203.643 198.946 203.151C200.647 202.887 202.424 202.66 204.352 202.471C206.242 202.281 208.132 202.244 209.984 202.357C211.836 202.471 213.651 202.811 215.427 203.378C217.204 203.945 218.754 204.777 220.19 205.912C222.231 207.538 223.29 209.504 223.403 211.811C223.517 214.118 222.798 216.311 221.249 218.354C220.039 219.904 218.565 221.19 216.826 222.249C215.049 223.308 213.273 224.139 211.458 224.782C208.283 225.917 204.994 226.446 201.517 226.371C198.077 226.295 194.675 225.728 191.386 224.669C191.31 225.085 191.272 225.501 191.235 225.955C191.197 226.371 191.197 226.787 191.197 227.24C191.046 228.64 191.499 229.812 192.558 230.72H195.846C196.678 230.72 197.547 230.757 198.417 230.871C199.286 230.984 200.042 231.325 200.685 231.892C201.441 232.535 201.895 233.291 202.008 234.199C202.121 235.106 201.895 235.976 201.328 236.732C200.609 237.716 199.475 238.434 197.85 238.888C196.224 239.342 194.864 239.682 193.73 239.909C191.915 240.249 190.101 240.363 188.286 240.174C186.472 239.985 184.771 239.531 183.145 238.737C179.327 240.136 175.85 242.102 172.674 244.56C169.159 247.435 166.362 251.027 164.283 255.338C162.204 259.649 161.107 264.036 160.956 268.536C160.881 272.356 161.485 275.457 162.733 277.839C164.018 280.222 165.719 281.923 167.874 282.869C170.028 283.814 172.485 284.079 175.207 283.625C177.967 283.171 180.726 282.075 183.561 280.297C186.169 278.596 188.211 276.705 189.685 274.587C191.159 272.469 192.142 270.503 192.596 268.688C193.049 266.872 193.049 265.284 192.596 263.998C192.142 262.712 191.235 261.994 189.912 261.918C188.702 261.843 187.568 262.145 186.472 262.75C185.376 263.393 184.317 264.225 183.296 265.284C182.276 266.343 181.331 267.477 180.499 268.65C179.668 269.86 178.912 270.919 178.269 271.826C177.211 269.217 177.022 266.532 177.626 263.734C178.269 260.935 179.554 258.59 181.52 256.586C182.994 255.111 184.733 254.052 186.699 253.41C188.664 252.767 190.592 252.615 192.52 252.918C194.41 253.221 196.111 254.015 197.585 255.3C199.059 256.548 200.08 258.326 200.647 260.595C201.214 263.053 201.139 265.435 200.496 267.666C199.815 269.935 198.757 272.053 197.321 274.02C195.884 275.986 194.221 277.801 192.369 279.427C190.516 281.054 188.664 282.453 186.812 283.663C182.238 286.613 177.589 288.503 172.826 289.26C168.063 290.016 163.716 289.751 159.784 288.428C155.853 287.104 152.564 284.76 149.918 281.394C147.272 278.066 145.798 273.755 145.533 268.536C145.269 264.036 145.987 259.876 147.688 256.057C149.427 252.237 151.771 248.872 154.757 245.846C157.743 242.859 161.183 240.287 165.114 238.169C169.008 236.052 172.977 234.388 176.984 233.215C175.358 230.606 174.64 227.732 174.753 224.555C174.905 221.379 175.774 218.429 177.4 215.669C175.925 213.891 174.678 211.963 173.695 209.845C172.712 207.727 172.07 205.458 171.805 202.962C171.729 202.697 171.692 202.168 171.654 201.45C171.654 200.693 171.654 199.975 171.654 199.218C171.654 198.462 171.767 197.781 171.881 197.176C171.994 196.533 172.221 196.155 172.561 196.004L172.523 196.08ZM216.334 207.916C214.558 207.349 212.743 207.235 210.891 207.538C209.039 207.841 207.187 208.446 205.41 209.278C203.596 210.11 201.932 211.131 200.345 212.341C198.757 213.551 197.358 214.761 196.187 216.047C198.455 216.879 200.761 217.559 203.142 218.051C205.523 218.543 207.867 218.732 210.097 218.58C211.723 218.505 213.424 218.202 215.163 217.673C216.939 217.143 218.3 216.16 219.283 214.761C220.266 213.286 220.417 211.887 219.699 210.601C218.981 209.315 217.884 208.408 216.334 207.916Z" fill="#3489C9"/>
<path d="M253.946 254.506C254.929 254.166 255.723 254.09 256.252 254.279C256.819 254.506 257.159 255.111 257.311 256.17C255.194 260.33 252.888 264.074 250.393 267.364C247.898 270.692 245.214 273.49 242.379 275.759C239.544 278.066 236.52 279.73 233.383 280.827C230.245 281.923 226.957 282.377 223.517 282.15C220.341 281.923 217.62 281.016 215.276 279.389C212.932 277.763 211.383 275.532 210.627 272.62L207.149 279.503L201.328 290.81C201.101 291.226 200.723 292.096 200.118 293.382C199.513 294.667 198.87 296.142 198.152 297.768C197.434 299.394 196.791 301.021 196.187 302.685C195.582 304.348 195.204 305.71 195.09 306.769C194.032 306.353 193.011 305.823 192.028 305.18C191.046 304.538 190.176 303.819 189.382 303.025C188.626 302.231 188.022 301.361 187.606 300.491C187.19 299.621 187.039 298.714 187.19 297.806C187.53 295.991 188.173 294.176 189.042 292.361C189.912 290.545 190.743 288.844 191.537 287.218C193.654 282.793 195.884 278.406 198.228 274.133C200.571 269.822 202.877 265.511 205.145 261.124C207.829 256.132 210.4 251.103 212.895 246.073C215.389 241.043 217.733 235.862 219.926 230.606C220.077 230.379 220.644 230.266 221.664 230.19C222.685 230.114 223.706 230.266 224.726 230.606C225.747 230.946 226.541 231.589 227.146 232.497C227.75 233.404 227.675 234.804 226.994 236.732L225.104 241.497C226.503 239.947 228.015 238.547 229.603 237.262C231.19 235.976 232.929 234.917 234.819 233.972C236.218 233.329 237.881 233.026 239.771 233.064C241.661 233.102 243.211 233.593 244.421 234.615C245.706 235.598 246.537 236.846 246.953 238.358C247.369 239.871 247.634 241.459 247.709 243.048C247.936 246.376 247.369 249.741 246.008 253.183C244.685 256.624 243.173 259.952 241.585 263.128C240.527 265.246 239.393 267.25 238.146 269.217C236.898 271.145 235.5 272.998 233.874 274.776C235.991 274.284 237.994 273.339 239.96 271.977C241.888 270.616 243.702 268.99 245.403 267.099C247.104 265.246 248.654 263.204 250.053 261.011C251.451 258.817 252.775 256.662 253.946 254.468V254.506ZM213.688 266.57C213.915 267.893 214.255 269.103 214.747 270.162C215.238 271.221 215.881 271.977 216.637 272.469C217.393 272.961 218.338 273.074 219.396 272.772C220.455 272.507 221.627 271.637 222.874 270.238C225.898 267.061 228.431 263.469 230.434 259.46C232.438 255.452 234.025 251.329 235.122 247.094C235.273 246.678 235.424 246.035 235.613 245.128C235.802 244.258 235.878 243.35 235.878 242.48C235.878 241.611 235.764 240.854 235.5 240.211C235.235 239.569 234.781 239.304 234.063 239.379C233.231 239.455 232.324 239.758 231.379 240.287C230.434 240.816 229.489 241.459 228.544 242.178C227.599 242.934 226.692 243.728 225.86 244.598C225.029 245.468 224.273 246.262 223.63 246.981C223.365 247.245 223.101 247.51 222.874 247.775C222.647 248.039 222.458 248.304 222.231 248.569L218.111 257.456L213.688 266.532V266.57Z" fill="#3489C9"/>
<path d="M279.386 232.875C278.555 233.858 277.572 235.22 276.438 236.997C275.304 238.774 274.208 240.59 273.149 242.481C272.091 244.371 271.108 246.224 270.125 247.964C269.18 249.741 268.462 251.178 267.97 252.313C266.988 254.506 266.043 256.7 265.135 258.855C264.228 261.048 263.397 263.242 262.716 265.511C262.149 267.629 261.885 269.368 261.922 270.73C261.922 272.091 262.376 272.999 263.132 273.415C263.888 273.831 265.022 273.717 266.496 273.036C267.97 272.356 269.861 270.994 272.204 268.952C274.472 266.91 276.589 264.641 278.555 262.183C280.52 259.725 282.221 257.153 283.62 254.468C285.51 253.561 286.644 254.128 286.984 256.17C285.359 259.12 283.544 262.07 281.503 264.981C279.462 267.893 277.194 270.616 274.737 273.074C270.919 277.083 267.517 279.768 264.455 281.054C261.393 282.339 258.747 282.528 256.479 281.545C254.098 280.562 252.472 278.974 251.678 276.742C250.884 274.511 250.506 272.242 250.582 269.935C250.733 265.586 251.489 261.238 252.888 257.002C254.287 252.729 256.063 248.758 258.18 245.014C259.465 242.745 260.826 240.476 262.338 238.132C263.85 235.825 265.589 233.82 267.555 232.232C268.273 231.665 269.142 231.211 270.201 230.909C271.259 230.606 272.355 230.455 273.527 230.493C274.699 230.493 275.795 230.72 276.854 231.06C277.912 231.4 278.744 232.005 279.386 232.837V232.875ZM279.311 222.929C277.761 222.438 276.438 221.492 275.304 220.131C274.17 218.769 273.792 217.068 274.132 215.101C274.397 213.399 274.888 211.773 275.568 210.223C276.249 208.672 277.459 207.727 279.197 207.387C280.18 207.235 281.163 207.235 282.108 207.387C283.053 207.538 283.998 207.765 284.905 208.143C287.022 208.861 288.383 209.807 288.988 210.979C289.593 212.189 289.933 213.059 290.008 213.626C290.16 215.026 290.008 216.425 289.63 217.748C289.252 219.072 288.572 220.244 287.589 221.228C286.455 222.286 285.17 222.929 283.696 223.194C282.221 223.459 280.785 223.345 279.349 222.929H279.311Z" fill="#3489C9"/>
<path d="M305.393 253.258C306.452 252.124 307.472 250.762 308.455 249.174C309.438 247.586 310.27 245.997 310.95 244.409C311.631 242.821 312.122 241.346 312.424 239.985C312.727 238.623 312.765 237.564 312.462 236.884L312.235 236.468C311.252 237.111 310.307 237.753 309.4 238.434C308.493 239.115 307.624 239.833 306.868 240.59C304.335 242.897 302.142 245.468 300.328 248.304C298.929 250.271 297.644 252.464 296.472 254.847C295.301 257.229 294.431 259.687 293.902 262.145C293.07 265.246 292.995 267.704 293.675 269.482C294.393 271.297 295.527 272.507 297.153 273.112C298.778 273.755 300.706 273.831 302.974 273.377C305.242 272.923 307.548 271.978 309.929 270.578C312.954 268.801 315.751 266.608 318.321 263.923C320.892 261.238 323.122 258.099 325.012 254.506C325.844 254.166 326.562 254.052 327.167 254.204C327.771 254.355 328.187 254.998 328.376 256.208C326.259 260.217 323.802 263.809 321.043 266.986C318.246 270.162 315.07 273.036 311.479 275.646C307.321 278.595 303.239 280.448 299.156 281.129C295.112 281.848 291.596 281.47 288.648 280.033C285.699 278.595 283.544 276.062 282.259 272.431C280.974 268.801 280.974 264.149 282.297 258.439C283.204 254.695 284.641 251.141 286.644 247.699C288.61 244.296 290.991 241.233 293.713 238.548C295.263 237.073 296.964 235.787 298.778 234.69C300.593 233.594 302.558 232.799 304.6 232.308C305.507 232.081 306.414 231.968 307.283 231.892C308.153 231.816 309.098 231.892 310.081 232.005C310.421 231.778 310.799 231.627 311.177 231.514C311.555 231.4 311.971 231.287 312.387 231.136C314.428 230.795 316.242 230.984 317.868 231.703C319.493 232.459 320.665 233.556 321.459 235.031C322.101 236.316 322.366 237.791 322.29 239.531C322.215 241.27 321.875 243.01 321.27 244.75C320.665 246.527 319.833 248.115 318.775 249.59C317.716 251.065 316.507 252.162 315.184 252.88C313.861 253.674 312.273 254.052 310.421 254.09C308.606 254.09 306.868 253.826 305.242 253.183L305.393 253.258Z" fill="#3489C9"/>
<path d="M389.16 230.757C387.875 229.85 386.854 228.715 386.06 227.43C385.267 226.144 384.7 224.782 384.359 223.421C384.057 222.06 383.981 220.66 384.133 219.261C384.322 217.862 384.7 216.501 385.342 215.253C386.892 212.454 389.009 210.299 391.693 208.824C394.377 207.349 397.363 206.403 400.727 206.025C404.054 205.647 407.645 205.761 411.387 206.328C415.167 206.933 418.909 207.878 422.652 209.24C425.109 210.072 427.566 210.866 430.061 211.622C432.518 212.379 435.05 212.794 437.659 212.946C439.473 213.021 441.25 212.794 442.989 212.303C444.727 211.811 446.391 211.131 448.016 210.299C448.999 209.807 449.604 209.542 449.793 209.542C449.982 209.542 449.868 210.147 449.377 211.32C448.167 214.269 446.277 216.652 443.669 218.391C441.968 219.526 440.191 220.32 438.301 220.812C436.411 221.303 434.446 221.606 432.404 221.757C429.947 224.707 427.83 227.883 426.129 231.211C424.391 234.539 422.727 237.98 421.102 241.497C418.796 246.716 416.452 251.897 414.146 257.078C411.841 262.259 408.968 267.175 405.603 271.826C403.713 274.36 401.483 276.667 398.988 278.747C396.493 280.827 393.81 282.491 390.899 283.701C388.026 284.949 385.002 285.629 381.864 285.743C378.727 285.894 375.59 285.289 372.414 283.928C369.05 282.604 366.442 280.6 364.665 277.953C362.888 275.305 361.754 272.394 361.301 269.217C360.847 266.04 360.998 262.826 361.717 259.536C362.473 256.246 363.758 253.296 365.572 250.611C367.387 247.851 369.579 245.619 372.112 243.918C374.645 242.178 377.555 241.119 380.882 240.703C382.507 240.476 384.095 240.552 385.645 240.854C387.194 241.157 388.631 241.686 389.916 242.443C391.201 243.199 392.373 244.145 393.356 245.279C394.339 246.451 395.095 247.851 395.586 249.439C396.078 250.989 396.304 252.578 396.267 254.204C396.267 255.83 396.002 257.418 395.511 259.006C395.057 260.595 394.377 262.107 393.469 263.507C392.562 264.906 391.504 266.154 390.294 267.213C389.084 268.196 387.799 269.028 386.401 269.709C385.002 270.389 383.528 270.73 381.978 270.73C380.201 270.654 378.954 270.465 378.16 270.162C377.404 269.86 376.988 269.595 376.988 269.368C378.765 268.725 380.315 267.666 381.751 266.192C383.15 264.717 384.284 263.053 385.191 261.238C386.06 259.422 386.665 257.494 386.93 255.527C387.194 253.561 387.119 251.746 386.627 250.157C386.212 248.758 385.493 247.586 384.473 246.716C383.452 245.846 382.28 245.241 380.995 244.901C379.672 244.598 378.349 244.598 376.988 244.901C375.627 245.203 374.38 245.846 373.246 246.754C371.961 247.813 370.978 249.061 370.222 250.498C369.466 251.935 368.937 253.447 368.596 255.036C368.256 256.624 368.067 258.25 368.029 259.952C368.029 261.654 368.067 263.242 368.294 264.717C368.521 266.419 368.861 268.007 369.39 269.519C369.919 271.032 370.675 272.356 371.62 273.528C372.565 274.7 373.737 275.608 375.174 276.326C376.572 277.045 378.198 277.385 380.05 277.385C382.507 277.385 384.7 276.932 386.665 276.024C388.593 275.116 390.37 273.906 391.957 272.394C393.545 270.881 394.944 269.141 396.191 267.175C397.438 265.208 398.535 263.166 399.555 261.086C400.576 259.006 401.521 256.889 402.353 254.733C403.184 252.578 404.016 250.611 404.772 248.758C405.755 246.376 406.851 243.842 407.985 241.157C409.157 238.472 410.442 235.863 411.878 233.329C413.315 230.795 414.94 228.451 416.755 226.257C418.531 224.064 420.61 222.249 422.916 220.774C422.16 220.623 421.404 220.471 420.762 220.282C420.081 220.093 419.439 219.904 418.796 219.715C415.432 218.807 411.992 218.127 408.552 217.673C405.112 217.219 401.597 217.219 398.005 217.711C396.607 217.938 395.284 218.391 394.112 219.148C392.902 219.904 391.92 220.849 391.088 221.984C390.294 223.156 389.689 224.48 389.349 225.955C389.009 227.43 389.009 229.018 389.349 230.72L389.16 230.757Z" fill="#3489C9"/>
<path d="M414.713 272.394C419.023 267.477 422.878 262.145 426.318 256.473C429.758 250.8 432.707 244.712 435.088 238.245C434.257 236.619 433.879 234.993 434.03 233.367C434.181 231.741 434.559 230.341 435.239 229.131C435.92 227.921 436.751 227.089 437.81 226.598C438.868 226.106 439.927 226.219 440.985 226.9C442.195 227.656 442.686 228.791 442.459 230.228C442.233 231.665 441.855 233.102 441.288 234.501C441.779 234.766 442.346 234.917 443.026 234.917H444.765C446.58 234.766 448.281 234.463 449.831 233.972C450.813 232.573 451.721 231.589 452.59 231.06C453.422 230.531 454.442 230.757 455.652 231.741C458.487 233.934 460.075 235.976 460.453 237.905C460.831 239.833 460.226 241.649 458.6 243.35C455.916 246.792 453.308 250.498 450.776 254.431C448.243 258.364 446.353 262.032 445.068 265.435C444.16 267.893 443.782 269.898 443.896 271.41C444.047 272.923 444.576 273.906 445.483 274.36C446.391 274.814 447.6 274.776 449.112 274.209C450.624 273.642 452.288 272.545 454.14 270.919C456.181 269.104 458.336 266.683 460.566 263.734C462.834 260.784 464.8 257.683 466.463 254.431C467.446 253.863 468.24 253.826 468.844 254.279C469.449 254.733 469.789 255.338 469.865 256.132C467.975 259.725 466.009 263.053 464.006 266.078C462.002 269.104 459.621 271.978 456.861 274.738C454.593 277.007 452.325 278.671 449.982 279.768C447.638 280.865 445.446 281.47 443.329 281.621C441.212 281.772 439.322 281.394 437.621 280.562C435.92 279.73 434.597 278.482 433.614 276.818C432.631 275.154 432.102 273.112 432.026 270.692C431.951 268.272 432.518 265.511 433.727 262.41C435.126 258.666 436.903 254.96 439.019 251.33C441.136 247.661 443.178 244.56 445.143 242.027C444.576 242.027 444.198 242.027 443.971 241.913C443.329 241.838 442.535 241.686 441.552 241.422C440.569 241.157 439.586 240.854 438.604 240.401C437.81 242.443 436.827 244.863 435.655 247.624C434.446 250.422 433.047 253.296 431.421 256.246C430.098 258.78 428.738 261.086 427.339 263.204C425.978 265.322 424.58 267.061 423.181 268.498C421.782 269.898 420.346 270.957 418.909 271.675C417.473 272.394 416.037 272.583 414.638 272.318L414.713 272.394Z" fill="#3489C9"/>
<path d="M518.742 235.069C517.948 236.127 517.041 237.489 515.944 239.191C514.848 240.892 513.714 242.707 512.504 244.674C511.295 246.64 510.123 248.683 508.951 250.8C507.779 252.918 506.759 254.922 505.851 256.813C503.961 260.746 502.487 264.074 501.429 266.759C500.37 269.444 500.106 271.146 500.597 271.94C500.824 272.28 501.164 272.469 501.693 272.431C502.223 272.431 502.79 272.28 503.432 272.053C504.075 271.826 504.642 271.562 505.171 271.259C505.7 270.957 506.078 270.73 506.267 270.578C507.817 269.595 509.178 268.461 510.388 267.137C511.597 265.851 512.693 264.49 513.752 263.053C514.735 261.729 515.68 260.292 516.587 258.817C517.494 257.343 518.364 255.905 519.12 254.468C519.951 254.242 520.669 254.242 521.274 254.468C521.879 254.695 522.295 255.263 522.484 256.17C521.501 257.985 520.556 259.801 519.649 261.578C518.742 263.355 517.683 265.057 516.473 266.759C515.339 268.461 514.168 270.087 512.92 271.637C511.673 273.188 510.35 274.663 508.951 276.062C507.628 277.385 506.154 278.596 504.566 279.617C502.979 280.638 501.202 281.129 499.236 281.054C497.271 281.054 495.494 280.486 493.944 279.352C492.394 278.217 491.26 276.742 490.58 274.927C490.24 274.095 489.975 273.112 489.824 272.091C488.69 273.717 487.518 275.192 486.233 276.516C484.948 277.839 483.511 278.974 481.886 279.881C479.618 281.167 477.274 281.659 474.817 281.47C472.36 281.243 470.205 280.297 468.391 278.633C466.614 277.007 465.442 275.079 464.8 272.885C464.157 270.654 463.855 268.423 463.855 266.192C463.93 263.393 464.384 260.595 465.215 257.834C466.047 255.074 467.181 252.464 468.542 249.893C469.903 247.359 471.49 244.976 473.305 242.745C475.082 240.514 477.009 238.51 479.051 236.657C481.016 234.842 483.247 233.329 485.741 232.232C488.236 231.098 490.844 230.606 493.491 230.757C496.099 230.909 498.367 231.703 500.37 233.14C502.336 234.577 503.772 236.506 504.717 238.888C505.549 237.905 506.532 236.997 507.628 236.203C508.724 235.409 509.858 234.766 511.068 234.35C512.353 233.858 513.676 233.631 515.15 233.707C516.587 233.783 517.759 234.237 518.704 235.069H518.742ZM485.363 264.036C488.539 261.767 491.374 258.893 493.906 255.376C496.439 251.859 498.102 248.115 498.858 244.182C499.198 242.707 499.161 241.233 498.745 239.796C498.329 238.359 497.233 237.489 495.456 237.224C494.058 236.997 492.734 237.3 491.563 238.056C490.353 238.85 489.257 239.682 488.274 240.59C485.25 243.539 482.793 246.943 480.941 250.725C479.088 254.544 477.652 258.477 476.669 262.561C475.762 266.645 475.951 269.33 477.236 270.654C478.521 271.94 480.336 272.015 482.566 270.805C484.04 270.049 485.439 269.066 486.724 267.969C488.009 266.835 489.295 265.662 490.466 264.49C489.484 264.717 488.463 264.83 487.442 264.868C486.422 264.868 485.704 264.641 485.288 264.074L485.363 264.036Z" fill="#3489C9"/>
<path d="M563.12 227.694C563.838 229.509 563.951 231.325 563.536 233.14C563.12 234.955 562.553 236.695 561.835 238.359C561.079 240.401 560.209 242.254 559.302 243.955C560.209 244.674 561.305 245.09 562.628 245.279C563.914 245.468 565.312 245.355 566.786 245.014C568.752 244.598 570.756 243.842 572.759 242.745C574.762 241.649 576.426 240.438 577.786 239.115C577.446 241.384 576.312 243.502 574.422 245.506C572.532 247.51 570.302 248.909 567.769 249.666C565.652 250.384 563.611 250.687 561.646 250.573C559.68 250.46 557.865 250.044 556.24 249.25L553.707 253.069C550.872 257.229 547.886 261.389 544.673 265.549C541.46 269.709 538.398 273.831 535.449 277.915C535.223 278.18 534.92 278.595 534.542 279.125C534.164 279.654 533.711 280.184 533.219 280.751C532.728 281.318 532.236 281.81 531.745 282.302C531.254 282.755 530.762 283.058 530.271 283.209C529.477 283.436 528.721 283.247 527.965 282.718C527.171 282.188 526.491 281.507 525.848 280.713C525.205 279.919 524.676 279.049 524.223 278.142C523.769 277.234 523.429 276.478 523.202 275.911C521.992 272.81 521.425 269.595 521.425 266.305C521.425 263.015 521.69 259.687 522.257 256.359C520.556 257.002 519.535 256.359 519.195 254.544C520.594 252.01 521.955 249.401 523.202 246.678C524.487 243.955 525.621 241.384 526.68 238.926C527.02 237.943 527.398 236.922 527.738 235.9C528.078 234.879 528.456 233.821 528.797 232.8C529.023 232.232 529.288 231.665 529.704 231.06C530.082 230.455 530.573 230.077 531.14 229.963C531.896 229.736 533.219 229.888 535.109 230.341C536.962 230.795 538.7 231.778 540.25 233.253C540.893 233.896 541.309 234.463 541.535 234.993C541.762 235.522 541.649 236.203 541.233 237.035C539.948 239.871 538.738 242.745 537.604 245.695C536.432 248.645 535.449 251.67 534.58 254.733C533.748 257.796 533.106 260.897 532.728 264.036C532.35 267.175 532.236 270.351 532.463 273.604C534.164 270.73 536.054 267.477 538.171 263.923C540.288 260.368 542.48 256.7 544.711 252.88L550.721 243.048C550.57 242.632 550.494 242.291 550.494 242.102C549.852 239.493 549.927 236.922 550.721 234.35C551.477 231.778 552.649 229.472 554.199 227.43C554.69 226.673 555.219 225.917 555.824 225.274C556.429 224.593 557.109 223.988 557.865 223.421C558.357 223.081 558.999 223.118 559.831 223.572C560.625 224.026 561.343 224.669 561.872 225.539C562.137 225.879 562.402 226.333 562.628 226.824C562.855 227.316 563.006 227.619 563.158 227.77L563.12 227.694Z" fill="#3489C9"/>
<path d="M581.907 259.914C581.113 259.99 580.357 259.99 579.525 259.952C578.731 259.952 577.938 259.838 577.144 259.687C575.859 263.62 575.518 266.872 576.048 269.406C576.577 271.94 577.786 273.717 579.639 274.7C581.491 275.683 583.91 275.873 586.859 275.23C589.807 274.587 593.134 273.112 596.8 270.805C599.749 268.763 602.433 266.267 604.776 263.355C607.12 260.443 609.123 257.494 610.749 254.544C611.505 254.279 612.261 254.128 612.903 254.166C613.584 254.166 613.962 254.884 614.113 256.208C612.488 259.309 610.371 262.485 607.725 265.7C605.079 268.952 602.168 271.94 599.031 274.7C593.965 278.936 588.976 281.734 584.024 283.171C579.11 284.57 574.876 284.154 571.36 281.885C568.676 280.07 566.635 277.688 565.199 274.738C563.762 271.826 563.12 268.763 563.233 265.586C563.309 262.637 563.838 259.649 564.859 256.662C565.879 253.674 567.24 250.8 568.941 248.039C570.642 245.279 572.608 242.783 574.838 240.476C577.106 238.169 579.525 236.354 582.134 234.917C584.742 233.518 587.766 232.421 591.168 231.627C594.57 230.871 597.783 230.871 600.732 231.627C602.206 231.967 603.453 232.61 604.436 233.48C605.419 234.35 606.137 235.371 606.591 236.543C607.044 237.716 607.233 238.964 607.158 240.287C607.082 241.611 606.818 242.972 606.326 244.296C605.116 247.472 603.226 250.157 600.58 252.313C597.934 254.506 595.099 256.17 592.075 257.38C588.711 258.779 585.309 259.611 581.945 259.8L581.907 259.914ZM590.979 239.644C588.371 241.913 585.989 244.485 583.835 247.359C581.68 250.233 579.866 253.258 578.391 256.435C579.45 256.17 580.659 255.754 581.982 255.262C584.099 254.506 586.14 253.561 588.106 252.464C590.072 251.367 591.886 250.044 593.474 248.493C594.872 247.208 596.196 245.733 597.367 244.069C598.577 242.367 599.106 240.514 598.955 238.472C598.955 237.337 598.615 236.695 597.897 236.581C597.178 236.43 596.385 236.581 595.477 236.884C594.57 237.224 593.701 237.678 592.831 238.245C592 238.812 591.357 239.266 590.941 239.606L590.979 239.644Z" fill="#3489C9"/>
<path d="M651.498 206.668C652.065 206.668 652.67 206.782 653.275 206.971C653.842 206.479 654.522 206.366 655.278 206.592C656.034 206.857 656.601 207.16 656.979 207.614C657.471 208.181 657.773 208.899 657.887 209.731C658 210.563 658 211.357 657.924 212.038C657.773 214.496 657.131 216.954 655.959 219.337C654.787 221.719 653.577 223.95 652.33 225.992C650.931 228.45 649.344 230.833 647.642 233.064C645.904 235.333 644.089 237.526 642.199 239.72C640.007 242.178 637.739 244.598 635.395 246.943C633.051 249.287 630.594 251.556 628.062 253.636C627.306 254.204 626.55 254.771 625.831 255.338C625.113 255.905 624.433 256.473 623.715 257.04C623.488 257.191 623.299 257.38 623.072 257.607C622.845 257.872 622.618 258.061 622.316 258.174C621.976 259.158 621.635 260.103 621.295 261.011C620.993 261.918 620.653 262.864 620.275 263.847C619.859 265.322 619.556 266.948 619.367 268.687C619.178 270.465 619.367 271.977 619.859 273.225C620.35 274.511 621.295 275.305 622.656 275.646C624.017 275.986 625.983 275.457 628.515 274.057C629.914 273.301 631.464 272.204 633.127 270.843C634.79 269.482 636.453 267.931 638.079 266.192C639.742 264.452 641.33 262.599 642.842 260.557C644.354 258.515 645.639 256.473 646.697 254.431C647.605 254.09 648.361 254.015 648.928 254.204C649.495 254.431 649.873 255.036 650.1 256.094C649.041 258.137 647.794 260.254 646.395 262.448C644.996 264.641 643.409 266.797 641.708 268.877C639.969 270.994 638.117 272.999 636.113 274.889C634.11 276.78 631.955 278.482 629.611 279.957C626.928 281.659 624.244 282.68 621.598 283.02C618.914 283.36 616.532 283.02 614.415 281.999C612.299 280.978 610.598 279.276 609.312 276.931C608.027 274.587 607.422 271.524 607.574 267.78C607.649 265.473 607.952 263.128 608.519 260.822C609.086 258.515 609.804 256.208 610.673 254.015C611.543 251.783 612.563 249.628 613.697 247.51C614.831 245.392 615.965 243.388 617.062 241.497C619.594 237.186 622.24 232.913 625.038 228.64C627.835 224.366 630.935 220.433 634.374 216.841C635.773 215.366 637.247 213.967 638.759 212.681C640.271 211.395 641.897 210.223 643.673 209.24C644.883 208.483 646.13 207.803 647.416 207.273C648.701 206.744 650.062 206.479 651.498 206.479V206.668ZM626.89 248.607C628.515 247.132 630.103 245.581 631.653 243.955C633.203 242.329 634.715 240.665 636.189 239.001C638.079 236.732 639.931 234.426 641.67 232.043C643.447 229.661 645.11 227.203 646.735 224.744C647.945 222.967 649.003 221.19 649.948 219.412C650.893 217.597 651.687 215.706 652.33 213.664C651.045 214.874 649.759 216.047 648.474 217.257C647.189 218.467 645.904 219.715 644.732 221.076C642.048 224.442 639.553 227.921 637.172 231.476C634.828 235.031 632.56 238.699 630.367 242.405L626.89 248.645V248.607Z" fill="#3489C9"/>
<path d="M155.551 151.153C155.513 152.401 156.08 152.855 157.289 152.855C163.338 152.855 169.348 152.855 175.396 152.855C177.248 152.855 178.836 152.136 179.63 150.283C180.424 148.506 179.894 146.993 178.685 145.556C174.073 139.922 169.461 134.287 164.887 128.614C162.808 126.005 160.843 123.282 158.801 120.635C157.932 119.538 156.987 118.479 155.777 117.005" fill="#BC164A"/>
<path d="M42.2992 188.1C42.2236 188.97 42.148 189.424 42.148 189.877C42.148 228.11 42.148 266.343 42.148 304.575C42.148 306.693 43.1308 308.168 44.9452 308.773C46.5707 309.34 48.3851 308.773 49.6704 307.26C52.014 304.462 54.3577 301.626 56.7013 298.789C65.9247 287.747 75.1104 276.667 84.3338 265.624C89.5125 259.384 94.6912 253.183 99.9077 246.981C100.853 245.884 101.08 245.165 99.8699 243.993C95.9386 240.325 92.1586 236.505 88.3029 232.724C74.8835 219.677 61.4642 206.63 48.0449 193.583C46.2305 191.806 44.3782 190.067 42.2992 188.062V188.1Z" fill="#BC164A"/>
<path d="M91.3269 148.014C107.733 163.179 123.911 178.116 140.43 193.357C140.506 192.109 140.581 191.39 140.581 190.634C140.581 175.167 140.581 159.662 140.581 144.195C140.581 135.157 140.581 126.119 140.581 117.08C140.581 115.114 139.939 113.677 138.124 112.807C136.31 111.975 134.722 112.391 133.248 113.601C121.227 123.396 109.245 133.228 97.2239 143.023C95.296 144.611 93.406 146.199 91.2891 147.977L91.3269 148.014Z" fill="#BC164A"/>
<path d="M93.7084 201.411C106.334 209.882 117.523 216.576 119.526 217.559C119.3 216.916 118.846 216.122 118.392 215.631C96.5812 192.487 88.9455 163.33 86.6774 151.872C80.5915 121.089 79.7599 89.6632 79.155 45.2664C78.6636 7.71448 77.5674 4.68915 77.5296 4.5757C75.753 0.378048 72.5021 -7.41219 35.2682 16.8283C23.6633 24.6563 14.0241 32.2197 2.04125 43.0353C-1.89005 47.2707 -5.78354 132.169 48.1583 170.742C63.3543 180.953 78.5124 191.201 93.7084 201.411Z" fill="#BC164A"/>
</g>
<defs>
<clipPath id="clip0_26_157">
<rect width="658" height="309" fill="white"/>
</clipPath>
</defs>
</svg>
